<svg viewBox="12 12 103 101" xmlns="http://www.w3.org/2000/svg">
  <defs>
    <filter id="genkit-glow" x="-11.0382" y="-11.603" width="138" height="147.999" filterUnits="userSpaceOnUse" color-interpolation-filters="sRGB">
      <feFlood flood-opacity="0" result="BackgroundImageFix"/>
      <feColorMatrix in="SourceAlpha" type="matrix" values="0 0 0 0 0 0 0 0 0 0 0 0 0 0 0 0 0 0 127 0" result="hardAlpha"/>
      <feOffset/>
      <feGaussianBlur stdDeviation="12"/>
      <feComposite in2="hardAlpha" operator="out"/>
      <feColorMatrix type="matrix" values="0 0 0 0 0.309804 0 0 0 0 0.223529 0 0 0 0 0.964706 0 0 0 0.3 0"/>
      <feBlend mode="normal" in2="BackgroundImageFix" result="effect1_dropShadow"/>
      <feColorMatrix in="SourceAlpha" type="matrix" values="0 0 0 0 0 0 0 0 0 0 0 0 0 0 0 0 0 0 127 0" result="hardAlpha"/>
      <feOffset/>
      <feGaussianBlur stdDeviation="6.5"/>
      <feComposite in2="hardAlpha" operator="out"/>
      <feColorMatrix type="matrix" values="0 0 0 0 0.776471 0 0 0 0 0.823529 0 0 0 0 1 0 0 0 0.1 0"/>
      <feBlend mode="normal" in2="effect1_dropShadow" result="effect2_dropShadow"/>
      <feBlend mode="normal" in="SourceGraphic" in2="effect2_dropShadow" result="shape"/>
    </filter>
  </defs>
  <g filter="url(#genkit-glow)">
    <path fill-rule="evenodd" clip-rule="evenodd" d="M17.9619 90.8971C16.3785 89.9803 15.1494 88.7719 14.2743 87.2719C13.3992 85.7719 12.9618 84.1054 12.9618 82.2721V42.5221C12.9618 40.6888 13.3992 39.022 14.2743 37.522C15.1494 36.022 16.3785 34.8136 17.9619 33.8971L52.9617 13.7719C54.5451 12.8554 56.2119 12.397 57.9618 12.397C59.7108 12.397 61.3788 12.8554 62.9628 13.7719L97.9608 33.8971C99.5448 34.8136 100.775 36.022 101.651 37.522C102.524 39.022 102.962 40.6888 102.962 42.5221V82.2721C102.962 84.1054 102.524 85.7719 101.651 87.2719C100.775 88.7719 99.5448 89.9803 97.9608 90.8971L62.9628 111.022C61.3788 111.94 59.7108 112.396 57.9618 112.396C56.2119 112.396 54.5451 111.94 52.9617 111.022L17.9619 90.8971ZM21.9618 82.3939V42.2737L57.9618 21.8971L93.9618 42.1471V82.3939L57.9618 102.898L21.9618 82.3939ZM50.1072 70.2517C55.3437 75.4879 57.9618 81.8698 57.9618 89.3971C57.9618 81.8698 60.5808 75.4879 65.8158 70.2517C71.0538 65.0152 77.4348 62.3971 84.9618 62.3971C77.4348 62.3971 71.0538 59.7787 65.8158 54.5425C60.5808 49.306 57.9618 42.9244 57.9618 35.3971C57.9618 42.9244 55.3437 49.306 50.1072 54.5425C44.871 59.7787 38.4891 62.3971 30.9618 62.3971C38.4891 62.3971 44.871 65.0152 50.1072 70.2517Z" fill="#C6D2FF"/>
    <path fill-rule="evenodd" clip-rule="evenodd" d="M17.9619 90.8971C16.3785 89.9803 15.1494 88.7719 14.2743 87.2719C13.3992 85.7719 12.9618 84.1054 12.9618 82.2721V42.5221C12.9618 40.6888 13.3992 39.022 14.2743 37.522C15.1494 36.022 16.3785 34.8136 17.9619 33.8971L52.9617 13.7719C54.5451 12.8554 56.2119 12.397 57.9618 12.397C59.7108 12.397 61.3788 12.8554 62.9628 13.7719L97.9608 33.8971C99.5448 34.8136 100.775 36.022 101.651 37.522C102.524 39.022 102.962 40.6888 102.962 42.5221V82.2721C102.962 84.1054 102.524 85.7719 101.651 87.2719C100.775 88.7719 99.5448 89.9803 97.9608 90.8971L62.9628 111.022C61.3788 111.94 59.7108 112.396 57.9618 112.396C56.2119 112.396 54.5451 111.94 52.9617 111.022L17.9619 90.8971ZM21.9618 82.3939V42.2737L57.9618 21.8971L93.9618 42.1471V82.3939L57.9618 102.898L21.9618 82.3939ZM50.1072 70.2517C55.3437 75.4879 57.9618 81.8698 57.9618 89.3971C57.9618 81.8698 60.5808 75.4879 65.8158 70.2517C71.0538 65.0152 77.4348 62.3971 84.9618 62.3971C77.4348 62.3971 71.0538 59.7787 65.8158 54.5425C60.5808 49.306 57.9618 42.9244 57.9618 35.3971C57.9618 42.9244 55.3437 49.306 50.1072 54.5425C44.871 59.7787 38.4891 62.3971 30.9618 62.3971C38.4891 62.3971 44.871 65.0152 50.1072 70.2517Z" fill="white" fill-opacity="0.2"/>
  </g>
</svg>
