<svg xmlns="http://www.w3.org/2000/svg" width="24" height="24" viewBox="0.5 3.5 23 17" fill="currentColor"><path d="M22 11.816c0-1.256-1.02-2.277-2.277-2.277-.593 0-1.122.24-1.526.613-1.48-.965-3.455-1.594-5.647-1.69l1.171-3.702 3.18.748c.008.89.727 1.609 1.617 1.609.896 0 1.623-.727 1.623-1.623S19.414 4.87 18.518 4.87c-.63 0-1.174.362-1.44.889l-3.592-.844a.39.39 0 0 0-.46.276L11.751 9.46c-2.264.065-4.31.695-5.835 1.677A2.263 2.263 0 0 0 4.277 9.54C3.02 9.54 2 10.56 2 11.816c0 .889.518 1.652 1.265 2.022a4.028 4.028 0 0 0-.053.648c0 3.396 4.053 6.155 9.042 6.155 4.99 0 9.042-2.76 9.042-6.155 0-.203-.017-.403-.049-.6A2.272 2.272 0 0 0 22 11.816zM18.518 5.814a.679.679 0 1 1 0 1.358.679.679 0 0 1 0-1.358zM7.895 13.452c0-.748.607-1.355 1.355-1.355.748 0 1.355.607 1.355 1.355 0 .748-.607 1.355-1.355 1.355a1.356 1.356 0 0 1-1.355-1.355zm7.594 3.673c-.916.916-2.694.99-3.236.99-.541 0-2.333-.089-3.236-.99a.326.326 0 0 1 0-.463.326.326 0 0 1 .463 0c.575.575 1.8.779 2.773.779.974 0 2.199-.204 2.773-.779a.326.326 0 0 1 .463 0 .326.326 0 0 1 0 .463zm-.234-2.318a1.356 1.356 0 0 1-1.355-1.355c0-.748.607-1.355 1.355-1.355.748 0 1.355.607 1.355 1.355 0 .748-.607 1.355-1.355 1.355z"/></svg>
